<svg xmlns="http://www.w3.org/2000/svg" style="display: none;">
  
  <!-- Home / Educação -->
  <symbol id="icon-home" viewBox="0 0 24 24" fill="none" stroke="currentColor" stroke-width="2">
    <path d="M3 9l9-7 9 7v11a2 2 0 0 1-2 2H5a2 2 0 0 1-2-2z"/>
    <polyline points="9 22 9 12 15 12 15 22"/>
  </symbol>

  <!-- Dashboard -->
  <symbol id="icon-dashboard" viewBox="0 0 24 24" fill="none" stroke="currentColor" stroke-width="2">
    <rect x="3" y="3" width="7" height="7"/>
    <rect x="14" y="3" width="7" height="7"/>
    <rect x="14" y="14" width="7" height="7"/>
    <rect x="3" y="14" width="7" height="7"/>
  </symbol>

  <!-- Notícias -->
  <symbol id="icon-news" viewBox="0 0 24 24" fill="none" stroke="currentColor" stroke-width="2">
    <path d="M19 20H5a2 2 0 01-2-2V6a2 2 0 012-2h10a2 2 0 012 2v1m2 13a2 2 0 01-2-2V7m2 13a2 2 0 002-2V9.5a2 2 0 00-2-2h-2"/>
    <line x1="7" y1="10" x2="13" y2="10"/>
    <line x1="7" y1="14" x2="13" y2="14"/>
  </symbol>

  <!-- Calculadora -->
  <symbol id="icon-calculator" viewBox="0 0 24 24" fill="none" stroke="currentColor" stroke-width="2">
    <rect x="4" y="2" width="16" height="20" rx="2"/>
    <line x1="8" y1="6" x2="16" y2="6"/>
    <line x1="8" y1="10" x2="8.01" y2="10"/>
    <line x1="12" y1="10" x2="12.01" y2="10"/>
    <line x1="16" y1="10" x2="16.01" y2="10"/>
    <line x1="8" y1="14" x2="8.01" y2="14"/>
    <line x1="12" y1="14" x2="12.01" y2="14"/>
    <line x1="16" y1="14" x2="16.01" y2="14"/>
    <line x1="8" y1="18" x2="8.01" y2="18"/>
    <line x1="12" y1="18" x2="12.01" y2="18"/>
    <line x1="16" y1="18" x2="16.01" y2="18"/>
  </symbol>

  <!-- Projeções / Perfil -->
  <symbol id="icon-chart" viewBox="0 0 24 24" fill="none" stroke="currentColor" stroke-width="2">
    <polyline points="22 12 18 12 15 21 9 3 6 12 2 12"/>
  </symbol>

  <!-- Criptomoeda -->
  <symbol id="icon-crypto" viewBox="0 0 24 24" fill="none" stroke="currentColor" stroke-width="2">
    <circle cx="12" cy="12" r="10"/>
    <path d="M9.5 9h4a1.5 1.5 0 010 3h-4m0-3v-1m0 1v3m0 0v1m0-1h4a1.5 1.5 0 010 3h-4"/>
    <line x1="12" y1="6" x2="12" y2="8"/>
    <line x1="12" y1="16" x2="12" y2="18"/>
  </symbol>

  <!-- FII / Imóveis -->
  <symbol id="icon-building" viewBox="0 0 24 24" fill="none" stroke="currentColor" stroke-width="2">
    <path d="M3 21h18"/>
    <path d="M5 21V7l8-4v18"/>
    <path d="M19 21V11l-6-4"/>
    <path d="M9 9v.01"/>
    <path d="M9 12v.01"/>
    <path d="M9 15v.01"/>
    <path d="M9 18v.01"/>
  </symbol>

  <!-- CDB / Cofre / Renda Fixa -->
  <symbol id="icon-safe" viewBox="0 0 24 24" fill="none" stroke="currentColor" stroke-width="2">
    <rect x="3" y="6" width="18" height="14" rx="2"/>
    <circle cx="15" cy="13" r="3"/>
    <path d="M7 10h.01M7 14h.01M7 18h.01"/>
  </symbol>

  <!-- Tesouro Direto -->
  <symbol id="icon-treasure" viewBox="0 0 24 24" fill="none" stroke="currentColor" stroke-width="2">
    <path d="M12 2L2 7l10 5 10-5-10-5z"/>
    <path d="M2 17l10 5 10-5"/>
    <path d="M2 12l10 5 10-5"/>
  </symbol>

  <!-- Dinheiro / Real -->
  <symbol id="icon-money" viewBox="0 0 24 24" fill="none" stroke="currentColor" stroke-width="2">
    <line x1="12" y1="1" x2="12" y2="23"/>
    <path d="M17 5H9.5a3.5 3.5 0 0 0 0 7h5a3.5 3.5 0 0 1 0 7H6"/>
  </symbol>

  <!-- Educação / Livro -->
  <symbol id="icon-book" viewBox="0 0 24 24" fill="none" stroke="currentColor" stroke-width="2">
    <path d="M4 19.5A2.5 2.5 0 0 1 6.5 17H20"/>
    <path d="M6.5 2H20v20H6.5A2.5 2.5 0 0 1 4 19.5v-15A2.5 2.5 0 0 1 6.5 2z"/>
  </symbol>

  <!-- Perfil / Usuário -->
  <symbol id="icon-user" viewBox="0 0 24 24" fill="none" stroke="currentColor" stroke-width="2">
    <path d="M20 21v-2a4 4 0 0 0-4-4H8a4 4 0 0 0-4 4v2"/>
    <circle cx="12" cy="7" r="4"/>
  </symbol>

  <!-- Alerta / Risco -->
  <symbol id="icon-alert" viewBox="0 0 24 24" fill="none" stroke="currentColor" stroke-width="2">
    <path d="M10.29 3.86L1.82 18a2 2 0 0 0 1.71 3h16.94a2 2 0 0 0 1.71-3L13.71 3.86a2 2 0 0 0-3.42 0z"/>
    <line x1="12" y1="9" x2="12" y2="13"/>
    <line x1="12" y1="17" x2="12.01" y2="17"/>
  </symbol>

  <!-- Tendência Alta -->
  <symbol id="icon-trending-up" viewBox="0 0 24 24" fill="none" stroke="currentColor" stroke-width="2">
    <polyline points="23 6 13.5 15.5 8.5 10.5 1 18"/>
    <polyline points="17 6 23 6 23 12"/>
  </symbol>

  <!-- Tendência Baixa -->
  <symbol id="icon-trending-down" viewBox="0 0 24 24" fill="none" stroke="currentColor" stroke-width="2">
    <polyline points="23 18 13.5 8.5 8.5 13.5 1 6"/>
    <polyline points="17 18 23 18 23 12"/>
  </symbol>

  <!-- Info -->
  <symbol id="icon-info" viewBox="0 0 24 24" fill="none" stroke="currentColor" stroke-width="2">
    <circle cx="12" cy="12" r="10"/>
    <line x1="12" y1="16" x2="12" y2="12"/>
    <line x1="12" y1="8" x2="12.01" y2="8"/>
  </symbol>

  <!-- Fechar / X -->
  <symbol id="icon-x" viewBox="0 0 24 24" fill="none" stroke="currentColor" stroke-width="2">
    <line x1="18" y1="6" x2="6" y2="18"/>
    <line x1="6" y1="6" x2="18" y2="18"/>
  </symbol>

  <!-- Menu Hamburger -->
  <symbol id="icon-menu" viewBox="0 0 24 24" fill="none" stroke="currentColor" stroke-width="2">
    <line x1="3" y1="12" x2="21" y2="12"/>
    <line x1="3" y1="6" x2="21" y2="6"/>
    <line x1="3" y1="18" x2="21" y2="18"/>
  </symbol>

  <!-- Seta Direita -->
  <symbol id="icon-arrow-right" viewBox="0 0 24 24" fill="none" stroke="currentColor" stroke-width="2">
    <line x1="5" y1="12" x2="19" y2="12"/>
    <polyline points="12 5 19 12 12 19"/>
  </symbol>

  <!-- Check / Sucesso -->
  <symbol id="icon-check" viewBox="0 0 24 24" fill="none" stroke="currentColor" stroke-width="2">
    <polyline points="20 6 9 17 4 12"/>
  </symbol>

  <!-- Target / Objetivo -->
  <symbol id="icon-target" viewBox="0 0 24 24" fill="none" stroke="currentColor" stroke-width="2">
    <circle cx="12" cy="12" r="10"/>
    <circle cx="12" cy="12" r="6"/>
    <circle cx="12" cy="12" r="2"/>
  </symbol>

  <!-- Lightbulb / Ideia -->
  <symbol id="icon-lightbulb" viewBox="0 0 24 24" fill="none" stroke="currentColor" stroke-width="2">
    <path d="M9 18h6"/>
    <path d="M10 22h4"/>
    <path d="M15.09 14c.18-.98.65-1.74 1.41-2.5A4.65 4.65 0 0018 8a6 6 0 10-12 0c0 1.36.52 2.5 1.5 3.5.76.76 1.23 1.52 1.41 2.5"/>
  </symbol>

  <!-- Bank / Banco -->
  <symbol id="icon-bank" viewBox="0 0 24 24" fill="none" stroke="currentColor" stroke-width="2">
    <path d="M3 21h18"/>
    <path d="M5 21V7l7-4 7 4v14"/>
    <path d="M9 9v12"/>
    <path d="M15 9v12"/>
  </symbol>

  <!-- Credit Card -->
  <symbol id="icon-credit-card" viewBox="0 0 24 24" fill="none" stroke="currentColor" stroke-width="2">
    <rect x="1" y="4" width="22" height="16" rx="2" ry="2"/>
    <line x1="1" y1="10" x2="23" y2="10"/>
  </symbol>

  <!-- Shield / Segurança -->
  <symbol id="icon-shield" viewBox="0 0 24 24" fill="none" stroke="currentColor" stroke-width="2">
    <path d="M12 22s8-4 8-10V5l-8-3-8 3v7c0 6 8 10 8 10z"/>
  </symbol>

  <!-- Rocket / Lançamento -->
  <symbol id="icon-rocket" viewBox="0 0 24 24" fill="none" stroke="currentColor" stroke-width="2">
    <path d="M4.5 16.5c-1.5 1.26-2 5-2 5s3.74-.5 5-2c.71-.84.7-2.13-.09-2.91a2.18 2.18 0 00-2.91-.09z"/>
    <path d="M12 15l-3-3a22 22 0 012-3.95A12.88 12.88 0 0122 2c0 2.72-.78 7.5-6 11a22.35 22.35 0 01-4 2z"/>
    <path d="M9 12H4s.55-3.03 2-4c1.62-1.08 5 0 5 0"/>
    <path d="M12 15v5s3.03-.55 4-2c1.08-1.62 0-5 0-5"/>
  </symbol>

  <!-- Heart / Recomendação -->
  <symbol id="icon-heart" viewBox="0 0 24 24" fill="none" stroke="currentColor" stroke-width="2">
    <path d="M20.84 4.61a5.5 5.5 0 00-7.78 0L12 5.67l-1.06-1.06a5.5 5.5 0 00-7.78 7.78l1.06 1.06L12 21.23l7.78-7.78 1.06-1.06a5.5 5.5 0 000-7.78z"/>
  </symbol>

  <!-- Award / Certificado -->
  <symbol id="icon-award" viewBox="0 0 24 24" fill="none" stroke="currentColor" stroke-width="2">
    <circle cx="12" cy="8" r="7"/>
    <polyline points="8.21 13.89 7 23 12 20 17 23 15.79 13.88"/>
  </symbol>

  <!-- Info Circle / Importante -->
  <symbol id="icon-info-circle" viewBox="0 0 24 24" fill="none" stroke="currentColor" stroke-width="2">
    <circle cx="12" cy="12" r="10"/>
    <line x1="12" y1="16" x2="12" y2="12"/>
    <line x1="12" y1="8" x2="12.01" y2="8"/>
  </symbol>

  <!-- Logo rafaInvest -->
  <symbol id="logo-rafa" viewBox="0 0 200 60" fill="none">
    <!-- Gráfico de linha estilizado -->
    <g stroke="url(#gradient-logo)" stroke-width="3" fill="none">
      <path d="M5 45 L15 40 L25 35 L35 25 L45 30 L55 15" stroke-linecap="round" stroke-linejoin="round"/>
      <circle cx="15" cy="40" r="2.5" fill="url(#gradient-logo)"/>
      <circle cx="25" cy="35" r="2.5" fill="url(#gradient-logo)"/>
      <circle cx="35" cy="25" r="3" fill="url(#gradient-logo)"/>
      <circle cx="45" cy="30" r="2.5" fill="url(#gradient-logo)"/>
      <circle cx="55" cy="15" r="3.5" fill="url(#gradient-logo)"/>
    </g>
    
    <!-- Texto rafaInvest -->
    <text x="65" y="35" font-family="Poppins, sans-serif" font-size="24" font-weight="700" fill="currentColor">
      rafa<tspan fill="url(#gradient-logo)">Invest</tspan>
    </text>
    
    <!-- Badge "Beta" ou detalhe -->
    <rect x="175" y="12" width="20" height="12" rx="6" fill="url(#gradient-logo)" opacity="0.2"/>
    <text x="185" y="20" font-family="Inter, sans-serif" font-size="8" font-weight="600" fill="url(#gradient-logo)" text-anchor="middle">β</text>
    
    <!-- Gradiente -->
    <defs>
      <linearGradient id="gradient-logo" x1="0%" y1="0%" x2="100%" y2="100%">
        <stop offset="0%" style="stop-color:#6366F1;stop-opacity:1" />
        <stop offset="50%" style="stop-color:#8B5CF6;stop-opacity:1" />
        <stop offset="100%" style="stop-color:#A855F7;stop-opacity:1" />
      </linearGradient>
    </defs>
  </symbol>

</svg>
