<svg xmlns="http://www.w3.org/2000/svg" style="display: none;">
  
  <!-- Home / Educação -->
  <symbol id="icon-home" viewBox="0 0 24 24" fill="none" stroke="currentColor" stroke-width="2">
    <path d="M3 9l9-7 9 7v11a2 2 0 0 1-2 2H5a2 2 0 0 1-2-2z"/>
    <polyline points="9 22 9 12 15 12 15 22"/>
  </symbol>

  <!-- Dashboard -->
  <symbol id="icon-dashboard" viewBox="0 0 24 24" fill="none" stroke="currentColor" stroke-width="2">
    <rect x="3" y="3" width="7" height="7"/>
    <rect x="14" y="3" width="7" height="7"/>
    <rect x="14" y="14" width="7" height="7"/>
    <rect x="3" y="14" width="7" height="7"/>
  </symbol>

  <!-- Notícias -->
  <symbol id="icon-news" viewBox="0 0 24 24" fill="none" stroke="currentColor" stroke-width="2">
    <path d="M19 20H5a2 2 0 01-2-2V6a2 2 0 012-2h10a2 2 0 012 2v1m2 13a2 2 0 01-2-2V7m2 13a2 2 0 002-2V9.5a2 2 0 00-2-2h-2"/>
    <line x1="7" y1="10" x2="13" y2="10"/>
    <line x1="7" y1="14" x2="13" y2="14"/>
  </symbol>

  <!-- Calculadora -->
  <symbol id="icon-calculator" viewBox="0 0 24 24" fill="none" stroke="currentColor" stroke-width="2">
    <rect x="4" y="2" width="16" height="20" rx="2"/>
    <line x1="8" y1="6" x2="16" y2="6"/>
    <line x1="8" y1="10" x2="8.01" y2="10"/>
    <line x1="12" y1="10" x2="12.01" y2="10"/>
    <line x1="16" y1="10" x2="16.01" y2="10"/>
    <line x1="8" y1="14" x2="8.01" y2="14"/>
    <line x1="12" y1="14" x2="12.01" y2="14"/>
    <line x1="16" y1="14" x2="16.01" y2="14"/>
    <line x1="8" y1="18" x2="8.01" y2="18"/>
    <line x1="12" y1="18" x2="12.01" y2="18"/>
    <line x1="16" y1="18" x2="16.01" y2="18"/>
  </symbol>

  <!-- Projeções / Perfil -->
  <symbol id="icon-chart" viewBox="0 0 24 24" fill="none" stroke="currentColor" stroke-width="2">
    <polyline points="22 12 18 12 15 21 9 3 6 12 2 12"/>
  </symbol>

  <!-- Criptomoeda -->
  <symbol id="icon-crypto" viewBox="0 0 24 24" fill="none" stroke="currentColor" stroke-width="2">
    <circle cx="12" cy="12" r="10"/>
    <path d="M9.5 9h4a1.5 1.5 0 010 3h-4m0-3v-1m0 1v3m0 0v1m0-1h4a1.5 1.5 0 010 3h-4"/>
    <line x1="12" y1="6" x2="12" y2="8"/>
    <line x1="12" y1="16" x2="12" y2="18"/>
  </symbol>

  <!-- FII / Imóveis -->
  <symbol id="icon-building" viewBox="0 0 24 24" fill="none" stroke="currentColor" stroke-width="2">
    <path d="M3 21h18"/>
    <path d="M5 21V7l8-4v18"/>
    <path d="M19 21V11l-6-4"/>
    <path d="M9 9v.01"/>
    <path d="M9 12v.01"/>
    <path d="M9 15v.01"/>
    <path d="M9 18v.01"/>
  </symbol>

  <!-- CDB / Cofre / Renda Fixa -->
  <symbol id="icon-safe" viewBox="0 0 24 24" fill="none" stroke="currentColor" stroke-width="2">
    <rect x="3" y="6" width="18" height="14" rx="2"/>
    <circle cx="15" cy="13" r="3"/>
    <path d="M7 10h.01M7 14h.01M7 18h.01"/>
  </symbol>

  <!-- Tesouro Direto -->
  <symbol id="icon-treasure" viewBox="0 0 24 24" fill="none" stroke="currentColor" stroke-width="2">
    <path d="M12 2L2 7l10 5 10-5-10-5z"/>
    <path d="M2 17l10 5 10-5"/>
    <path d="M2 12l10 5 10-5"/>
  </symbol>

  <!-- Dinheiro / Real -->
  <symbol id="icon-money" viewBox="0 0 24 24" fill="none" stroke="currentColor" stroke-width="2">
    <line x1="12" y1="1" x2="12" y2="23"/>
    <path d="M17 5H9.5a3.5 3.5 0 0 0 0 7h5a3.5 3.5 0 0 1 0 7H6"/>
  </symbol>

  <!-- Educação / Livro -->
  <symbol id="icon-book" viewBox="0 0 24 24" fill="none" stroke="currentColor" stroke-width="2">
    <path d="M4 19.5A2.5 2.5 0 0 1 6.5 17H20"/>
    <path d="M6.5 2H20v20H6.5A2.5 2.5 0 0 1 4 19.5v-15A2.5 2.5 0 0 1 6.5 2z"/>
  </symbol>

  <!-- Perfil / Usuário -->
  <symbol id="icon-user" viewBox="0 0 24 24" fill="none" stroke="currentColor" stroke-width="2">
    <path d="M20 21v-2a4 4 0 0 0-4-4H8a4 4 0 0 0-4 4v2"/>
    <circle cx="12" cy="7" r="4"/>
  </symbol>

  <!-- Alerta / Risco -->
  <symbol id="icon-alert" viewBox="0 0 24 24" fill="none" stroke="currentColor" stroke-width="2">
    <path d="M10.29 3.86L1.82 18a2 2 0 0 0 1.71 3h16.94a2 2 0 0 0 1.71-3L13.71 3.86a2 2 0 0 0-3.42 0z"/>
    <line x1="12" y1="9" x2="12" y2="13"/>
    <line x1="12" y1="17" x2="12.01" y2="17"/>
  </symbol>

  <!-- Tendência Alta -->
  <symbol id="icon-trending-up" viewBox="0 0 24 24" fill="none" stroke="currentColor" stroke-width="2">
    <polyline points="23 6 13.5 15.5 8.5 10.5 1 18"/>
    <polyline points="17 6 23 6 23 12"/>
  </symbol>

  <!-- Tendência Baixa -->
  <symbol id="icon-trending-down" viewBox="0 0 24 24" fill="none" stroke="currentColor" stroke-width="2">
    <polyline points="23 18 13.5 8.5 8.5 13.5 1 6"/>
    <polyline points="17 18 23 18 23 12"/>
  </symbol>

  <!-- Info -->
  <symbol id="icon-info" viewBox="0 0 24 24" fill="none" stroke="currentColor" stroke-width="2">
    <circle cx="12" cy="12" r="10"/>
    <line x1="12" y1="16" x2="12" y2="12"/>
    <line x1="12" y1="8" x2="12.01" y2="8"/>
  </symbol>

  <!-- Fechar / X -->
  <symbol id="icon-x" viewBox="0 0 24 24" fill="none" stroke="currentColor" stroke-width="2">
    <line x1="18" y1="6" x2="6" y2="18"/>
    <line x1="6" y1="6" x2="18" y2="18"/>
  </symbol>

  <!-- Menu Hamburger -->
  <symbol id="icon-menu" viewBox="0 0 24 24" fill="none" stroke="currentColor" stroke-width="2">
    <line x1="3" y1="12" x2="21" y2="12"/>
    <line x1="3" y1="6" x2="21" y2="6"/>
    <line x1="3" y1="18" x2="21" y2="18"/>
  </symbol>

  <!-- Seta Direita -->
  <symbol id="icon-arrow-right" viewBox="0 0 24 24" fill="none" stroke="currentColor" stroke-width="2">
    <line x1="5" y1="12" x2="19" y2="12"/>
    <polyline points="12 5 19 12 12 19"/>
  </symbol>

  <!-- Check / Sucesso -->
  <symbol id="icon-check" viewBox="0 0 24 24" fill="none" stroke="currentColor" stroke-width="2">
    <polyline points="20 6 9 17 4 12"/>
  </symbol>

</svg>
